<?xml version="1.0" encoding="UTF-8"?>
<svg xmlns="http://www.w3.org/2000/svg" width="194" height="46" viewBox="0 0 194 46" fill="none">
  <path d="M104.747 40.0168C103.539 40.0168 102.416 39.7722 101.387 39.2827C100.352 38.7933 99.4746 38.137 98.7309 37.3085C97.9927 36.4797 97.4168 35.5287 96.9974 34.4331C96.5838 33.3431 96.3768 32.1974 96.3768 30.9905C96.3768 29.7837 96.5726 28.5991 96.9639 27.5034C97.3555 26.4024 97.9088 25.4403 98.6133 24.6115C99.318 23.7829 100.157 23.1377 101.135 22.6594C102.108 22.1811 103.182 21.9419 104.345 21.9419C105.753 21.9419 107.012 22.3091 108.124 23.0488C109.237 23.7883 110.115 24.6727 110.763 25.7239V15.2961H113.721V36.0793C113.721 36.7689 114.034 37.1305 114.666 37.1471V39.6831C114.353 39.7275 114.101 39.7611 113.911 39.7833C113.721 39.8055 113.537 39.8166 113.358 39.8166C112.776 39.8166 112.267 39.6219 111.826 39.2327C111.384 38.8434 111.171 38.393 111.171 37.8757V36.4019C110.478 37.5363 109.55 38.4263 108.398 39.0547C107.241 39.6999 106.022 40.0113 104.747 40.0168ZM105.452 37.4808C105.988 37.4808 106.542 37.3808 107.112 37.1804C107.683 36.9802 108.225 36.7023 108.728 36.3462C109.231 35.9902 109.673 35.5731 110.042 35.095C110.411 34.6167 110.652 34.1105 110.763 33.5711V28.5546C110.562 27.9985 110.26 27.4701 109.857 26.9696C109.455 26.469 108.996 26.0297 108.493 25.6681C107.99 25.3011 107.453 25.012 106.877 24.8005C106.307 24.5893 105.737 24.4836 105.178 24.4836C104.305 24.4836 103.517 24.6672 102.807 25.0342C102.102 25.4013 101.493 25.8907 100.99 26.508C100.486 27.1198 100.101 27.8206 99.8324 28.6158C99.5639 29.4111 99.4297 30.2174 99.4297 31.0406C99.4297 31.9081 99.5863 32.7369 99.8994 33.5265C100.213 34.322 100.637 35.0005 101.18 35.5842C101.722 36.1627 102.354 36.6243 103.081 36.9691C103.808 37.3139 104.602 37.4864 105.452 37.4808Z" fill="#302789"></path>
  <path d="M124.636 40.0169C123.316 40.0169 122.108 39.7721 121.024 39.2827C119.939 38.7932 119.005 38.1369 118.234 37.3084C117.456 36.4798 116.864 35.5288 116.439 34.4332C116.014 33.343 115.801 32.1973 115.801 30.9906C115.801 29.7837 116.019 28.6046 116.455 27.5146C116.897 26.4245 117.495 25.4624 118.273 24.6393C119.05 23.8107 119.978 23.16 121.063 22.665C122.153 22.1755 123.338 21.9309 124.641 21.9309C125.944 21.9309 127.14 22.1755 128.236 22.665C129.332 23.1544 130.272 23.8107 131.043 24.6393C131.82 25.468 132.418 26.419 132.86 27.5146C133.302 28.6046 133.514 29.7671 133.514 30.9906C133.514 32.2141 133.302 33.3375 132.877 34.4332C132.452 35.5231 131.848 36.4852 131.06 37.3084C130.277 38.1369 129.343 38.7878 128.253 39.2827C127.157 39.7721 125.955 40.0169 124.636 40.0169ZM118.821 31.0296C118.821 31.9416 118.972 32.7869 119.273 33.5654C119.575 34.3441 119.995 35.0226 120.515 35.6009C121.04 36.1794 121.655 36.6355 122.36 36.9692C123.064 37.3029 123.819 37.4696 124.63 37.4696C125.441 37.4696 126.195 37.3029 126.9 36.9692C127.605 36.6355 128.225 36.1683 128.767 35.5843C129.31 34.9947 129.724 34.3051 130.025 33.5155C130.327 32.7257 130.478 31.8747 130.478 30.9572C130.478 30.045 130.327 29.2276 130.025 28.4323C129.724 27.6425 129.304 26.9529 128.767 26.3633C128.231 25.7739 127.61 25.3123 126.9 24.9786C126.19 24.6449 125.441 24.4781 124.63 24.4781C123.819 24.4781 123.064 24.6504 122.36 24.9952C121.655 25.34 121.04 25.8072 120.515 26.3968C119.989 26.9862 119.57 27.6758 119.273 28.4656C118.972 29.2554 118.821 30.1119 118.821 31.0296Z" fill="#302789"></path>
  <path d="M133.173 45.8953C132.39 45.8953 131.658 45.784 130.97 45.5616C130.288 45.3392 129.679 44.9833 129.142 44.4939L130.517 42.5196C130.83 42.8087 131.194 43.0088 131.608 43.1201C132.021 43.2314 132.429 43.287 132.838 43.287C133.195 43.287 133.542 43.2147 133.878 43.07C134.213 42.9254 134.515 42.7309 134.784 42.4861C135.052 42.2415 135.264 41.9411 135.421 41.5852C135.572 41.2293 135.656 40.8511 135.656 40.4506V22.2424H138.614V40.2504C138.614 41.0735 138.462 41.8355 138.16 42.5251C137.859 43.2147 137.456 43.8097 136.953 44.3103C136.45 44.8108 135.868 45.2001 135.22 45.4782C134.571 45.7618 133.889 45.901 133.173 45.8953ZM135.661 18.9666V15.2905H138.619V18.9666H135.661Z" fill="#302789"></path>
  <path d="M149.365 40.0169C148.045 40.0169 146.838 39.7721 145.753 39.2827C144.663 38.7932 143.734 38.1369 142.963 37.3084C142.186 36.4798 141.593 35.5288 141.168 34.4332C140.743 33.343 140.531 32.1973 140.531 30.9906C140.531 29.7837 140.749 28.6046 141.185 27.5146C141.621 26.4245 142.225 25.4624 143.002 24.6393C143.779 23.8107 144.707 23.16 145.792 22.665C146.882 22.1755 148.068 21.9309 149.37 21.9309C150.673 21.9309 151.87 22.1755 152.971 22.665C154.067 23.1544 155.006 23.8107 155.778 24.6393C156.555 25.468 157.153 26.419 157.595 27.5146C158.031 28.6046 158.25 29.7671 158.25 30.9906C158.25 32.2141 158.037 33.3375 157.612 34.4332C157.187 35.5231 156.578 36.4852 155.795 37.3084C155.012 38.1369 154.078 38.7878 152.988 39.2827C151.892 39.7721 150.69 40.0169 149.365 40.0169ZM143.55 31.0296C143.55 31.9416 143.701 32.7869 144.003 33.5654C144.305 34.3441 144.724 35.0226 145.244 35.6009C145.77 36.1794 146.39 36.6355 147.095 36.9692C147.799 37.3029 148.554 37.4696 149.365 37.4696C150.176 37.4696 150.93 37.3029 151.635 36.9692C152.339 36.6355 152.96 36.1683 153.502 35.5843C154.039 34.9947 154.458 34.3051 154.76 33.5155C155.062 32.7257 155.213 31.8747 155.213 30.9572C155.213 30.045 155.062 29.2276 154.76 28.4323C154.458 27.6425 154.039 26.9529 153.502 26.3633C152.966 25.7739 152.345 25.3123 151.635 24.9786C150.93 24.6449 150.176 24.4781 149.365 24.4781C148.554 24.4781 147.799 24.6504 147.095 24.9952C146.39 25.3456 145.775 25.8072 145.244 26.3968C144.718 26.9862 144.299 27.6758 144.003 28.4656C143.707 29.2554 143.55 30.1119 143.55 31.0296Z" fill="#302789"></path>
  <path d="M17.9596 40.0169C16.6177 40.0169 15.438 39.7333 14.4315 39.1604C13.4251 38.593 12.6311 37.7978 12.0441 36.769V39.6721H7.36975V15.2905H12.7486V25.0119C13.3301 24.0108 14.1128 23.2267 15.0801 22.6538C16.053 22.0866 17.2048 21.7974 18.5244 21.7974C19.6426 21.7974 20.6771 22.0365 21.6165 22.5149C22.5614 22.9932 23.361 23.6495 24.0319 24.4669C24.7029 25.2955 25.2339 26.2689 25.6086 27.3922C25.9888 28.5157 26.1789 29.7115 26.1789 30.9851C26.1789 32.2587 25.9721 33.4377 25.5583 34.5445C25.1446 35.6512 24.5687 36.6022 23.825 37.4196C23.087 38.2317 22.2091 38.8657 21.2027 39.3216C20.1962 39.7777 19.1058 40.0112 17.9429 40.0112L17.9596 40.0169ZM16.45 35.5066C17.0762 35.5066 17.6521 35.3898 18.1609 35.1561C18.6753 34.9169 19.117 34.6055 19.486 34.2051C19.8552 33.8048 20.1515 33.3319 20.3585 32.7869C20.5709 32.2419 20.6771 31.6468 20.6771 31.0017C20.6771 30.3565 20.5764 29.7836 20.3751 29.2164C20.1739 28.6492 19.8999 28.1542 19.5531 27.7316C19.2065 27.3088 18.7871 26.9751 18.2951 26.7305C17.8031 26.4859 17.2775 26.3635 16.7184 26.3635C15.8685 26.3635 15.0913 26.6525 14.3868 27.231C13.6823 27.8094 13.1344 28.5325 12.7598 29.4055V33.0816C13.1176 33.8381 13.6376 34.4386 14.3253 34.8668C14.9963 35.2951 15.7119 35.5066 16.45 35.5066Z" fill="#302789"></path>
  <path d="M27.4641 15.2905H32.8428V33.4377C32.8428 34.7723 33.413 35.4397 34.5537 35.4397C34.8221 35.4397 35.1184 35.4009 35.4427 35.3229C35.7671 35.2452 36.0634 35.1282 36.3318 34.9727L37.0363 38.9825C36.3653 39.294 35.5882 39.5386 34.7159 39.7165C33.8435 39.8945 33.0274 39.9836 32.2613 39.9836C30.7182 39.9836 29.5271 39.583 28.6996 38.7823C27.8666 37.9814 27.4584 36.8246 27.4584 35.3064V15.2905H27.4641Z" fill="#302789"></path>
  <path d="M45.8482 40.0169C44.344 40.0169 43.0078 39.7723 41.8336 39.2829C40.6594 38.7934 39.6698 38.1317 38.8591 37.2975C38.0539 36.4632 37.4388 35.49 37.0306 34.3944C36.617 33.2877 36.41 32.1363 36.41 30.935C36.41 29.7338 36.617 28.577 37.0306 27.4759C37.4445 26.3691 38.0594 25.407 38.8591 24.5728C39.6641 23.7386 40.6539 23.0712 41.8336 22.5706C43.0133 22.0701 44.3497 21.8198 45.8482 21.8198C47.3465 21.8198 48.683 22.0701 49.8458 22.5706C51.0088 23.0712 51.9986 23.7386 52.8036 24.5728C53.6088 25.407 54.2294 26.3803 54.6545 27.4759C55.0793 28.5826 55.2917 29.7338 55.2917 30.935C55.2917 32.1363 55.085 33.2931 54.6711 34.3944C54.2574 35.5011 53.6423 36.4632 52.8428 37.2975C52.0376 38.1317 51.048 38.7991 49.8683 39.2829C48.6942 39.7723 47.3522 40.0169 45.8537 40.0169H45.8482ZM41.9175 30.9296C41.9175 32.3143 42.2865 33.4155 43.0301 34.2498C43.7681 35.084 44.7076 35.5011 45.8537 35.5011C46.4128 35.5011 46.9272 35.3898 47.3969 35.1674C47.8666 34.9448 48.2748 34.6336 48.6269 34.2275C48.9736 33.827 49.2475 33.3432 49.449 32.776C49.6502 32.2086 49.7508 31.5859 49.7508 30.9185C49.7508 29.5336 49.3818 28.4325 48.6381 27.5983C47.9001 26.764 46.9664 26.3469 45.8482 26.3469C45.289 26.3469 44.7634 26.458 44.2825 26.6806C43.8018 26.903 43.388 27.2145 43.0413 27.6205C42.689 28.0209 42.4207 28.5046 42.2195 29.072C42.0237 29.6392 41.9175 30.2622 41.9175 30.9296Z" fill="#302789"></path>
  <path d="M56.0638 30.8961C56.0638 29.6948 56.2763 28.538 56.7011 27.4369C57.1261 26.3302 57.7411 25.3681 58.5519 24.5339C59.3569 23.6996 60.3467 23.0322 61.5264 22.5485C62.7006 22.059 64.0425 21.8142 65.541 21.8142C67.5818 21.8142 69.2927 22.2424 70.685 23.0989C72.0773 23.9554 73.1172 25.0732 73.8105 26.4581L68.5716 28.0264C67.8781 26.9142 66.8604 26.3581 65.513 26.3581C64.3949 26.3581 63.4611 26.7695 62.7063 27.5927C61.9569 28.4213 61.5825 29.5169 61.5825 30.9017C61.5825 31.5914 61.683 32.2198 61.8842 32.7926C62.0855 33.3598 62.3651 33.8438 62.7229 34.2442C63.0808 34.6445 63.5001 34.9616 63.981 35.184C64.4619 35.4064 64.9706 35.5177 65.513 35.5177C66.184 35.5177 66.7991 35.3565 67.3637 35.0339C67.9229 34.7114 68.3423 34.2942 68.6051 33.7826L73.844 35.3899C73.1954 36.7469 72.1611 37.8647 70.7353 38.7323C69.3095 39.5998 67.5818 40.0337 65.5465 40.0337C64.0649 40.0337 62.7398 39.7834 61.5656 39.2829C60.3914 38.7824 59.3906 38.115 58.5743 37.2807C57.7579 36.4465 57.1373 35.4733 56.7068 34.3777C56.2818 33.2709 56.0693 32.1196 56.0693 30.9183L56.0638 30.8961Z" fill="#302789"></path>
  <path d="M86.7764 39.6832L82.1749 32.6312L80.2962 34.5721V39.6887H74.9174V15.2905H80.2962V29.4277L86.2452 22.1422H91.9596L85.6024 29.6948L92.4908 39.6887H86.7764V39.6832Z" fill="#302789"></path>
  <path d="M182.036 28.2099L170.641 27.4537L165.603 17.265L171.96 7.83276L183.355 8.59469L188.393 18.7833L182.036 28.2099Z" fill="#5028EF"></path>
  <path d="M170.645 27.4537L165.608 17.265L171.965 7.83276C173.654 11.2419 175.348 14.6567 177.036 18.0714C174.906 21.1914 172.776 24.3171 170.645 27.4537Z" fill="#7A5EE7"></path>
  <path d="M177.042 18.0656C175.353 14.6564 173.659 11.2417 171.97 7.8269L183.366 8.58327L188.403 18.7719L177.042 18.0656Z" fill="#A38DF8"></path>
</svg>
